<svg width="58" height="61" viewBox="0 0 58 61" fill="none" xmlns="http://www.w3.org/2000/svg">
<g filter="url(#filter0_d_105_14)">
<path d="M10.3125 50.4167C9.39583 50.4167 8.59375 50.0729 7.90625 49.3854C7.21875 48.6979 6.875 47.8958 6.875 46.9792V11.4583C6.875 10.5417 7.21875 9.73958 7.90625 9.05208C8.59375 8.36458 9.39583 8.02083 10.3125 8.02083H14.0365V4.58333H17.7604V8.02083H37.2396V4.58333H40.9635V8.02083H44.6875C45.6042 8.02083 46.4062 8.36458 47.0938 9.05208C47.7812 9.73958 48.125 10.5417 48.125 11.4583V28.7031H44.6875V22.3437H10.3125V46.9792H28.5885V50.4167H10.3125ZM50.9323 37.8698L46.8646 33.8021L48.526 32.1406C48.8435 31.8351 49.2475 31.6823 49.7381 31.6823C50.2287 31.6823 50.6267 31.8351 50.9323 32.1406L52.5937 33.8021C52.8993 34.1195 53.0521 34.5235 53.0521 35.0141C53.0521 35.5047 52.8993 35.9028 52.5937 36.2083L50.9323 37.8698ZM32.026 52.7083V48.6406L44.401 36.2656L48.4688 40.3333L36.0937 52.7083H32.026ZM10.3125 18.9062H44.6875V11.4583H10.3125V18.9062Z" fill="black"/>
</g>
<defs>
<filter id="filter0_d_105_14" x="-4" y="0" width="63" height="63" filterUnits="userSpaceOnUse" color-interpolation-filters="sRGB">
<feFlood flood-opacity="0" result="BackgroundImageFix"/>
<feColorMatrix in="SourceAlpha" type="matrix" values="0 0 0 0 0 0 0 0 0 0 0 0 0 0 0 0 0 0 127 0" result="hardAlpha"/>
<feOffset dy="4"/>
<feGaussianBlur stdDeviation="2"/>
<feComposite in2="hardAlpha" operator="out"/>
<feColorMatrix type="matrix" values="0 0 0 0 0 0 0 0 0 0 0 0 0 0 0 0 0 0 0.25 0"/>
<feBlend mode="normal" in2="BackgroundImageFix" result="effect1_dropShadow_105_14"/>
<feBlend mode="normal" in="SourceGraphic" in2="effect1_dropShadow_105_14" result="shape"/>
</filter>
</defs>
</svg>
